<svg width="80" height="80" viewBox="0 0 80 80" fill="none" xmlns="http://www.w3.org/2000/svg">
<circle cx="16" cy="10" r="5" fill="#D9D9D9"/>
<circle cx="16" cy="22" r="5" fill="#D9D9D9"/>
<circle cx="16" cy="34" r="5" fill="#D9D9D9"/>
<circle cx="16" cy="46" r="5" fill="#D9D9D9"/>
<circle cx="16" cy="58" r="5" fill="#D9D9D9"/>
<circle cx="16" cy="70" r="5" fill="#D9D9D9"/>
<circle cx="40" cy="70" r="5" fill="#D9D9D9"/>
<circle cx="28" cy="10" r="5" fill="#D9D9D9"/>
<circle cx="40" cy="10" r="5" fill="#555555"/>
<circle cx="40" cy="58" r="5" fill="#D9D9D9"/>
<circle cx="52" cy="10" r="5" fill="#555555"/>
<circle cx="52" cy="58" r="5" fill="#D9D9D9"/>
<circle cx="28" cy="22" r="5" fill="#D9D9D9"/>
<circle cx="28" cy="34" r="5" fill="#D9D9D9"/>
<circle cx="28" cy="46" r="5" fill="#D9D9D9"/>
<circle cx="28" cy="58" r="5" fill="#D9D9D9"/>
<circle cx="28" cy="70" r="5" fill="#D9D9D9"/>
<circle cx="52" cy="70" r="5" fill="#D9D9D9"/>
<circle cx="64" cy="70" r="5" fill="#D9D9D9"/>
<circle cx="64" cy="58" r="5" fill="#D9D9D9"/>
<circle cx="64" cy="46" r="5" fill="#555555"/>
<circle cx="64" cy="34" r="5" fill="#555555"/>
<circle cx="64" cy="22" r="5" fill="#555555"/>
<circle cx="64" cy="10" r="5" fill="#555555"/>
<circle cx="52" cy="22" r="5" fill="#555555"/>
<circle cx="40" cy="34" r="5" fill="#555555"/>
<circle cx="40" cy="46" r="5" fill="#555555"/>
<circle cx="52" cy="46" r="5" fill="#555555"/>
<circle cx="52" cy="34" r="5" fill="#555555"/>
<circle cx="40" cy="22" r="5" fill="#555555"/>
</svg>
