<svg width="634" height="82" viewBox="0 0 634 82" fill="none" xmlns="http://www.w3.org/2000/svg">
<circle cx="101" cy="29" r="5" fill="#D9D9D9"/>
<circle cx="101" cy="5" r="5" fill="#D9D9D9"/>
<circle cx="89" cy="29" r="5" fill="#D9D9D9"/>
<circle cx="77" cy="29" r="5" fill="#D9D9D9"/>
<circle cx="101" cy="41" r="5" fill="#D9D9D9"/>
<circle cx="101" cy="53" r="5" fill="#D9D9D9"/>
<circle cx="101" cy="65" r="5" fill="#D9D9D9"/>
<circle cx="101" cy="77" r="5" fill="#D9D9D9"/>
<circle cx="89" cy="77" r="5" fill="#D9D9D9"/>
<circle cx="77" cy="77" r="5" fill="#D9D9D9"/>
<circle cx="113" cy="29" r="5" fill="#D9D9D9"/>
<circle cx="113" cy="41" r="5" fill="#D9D9D9"/>
<circle cx="113" cy="53" r="5" fill="#D9D9D9"/>
<circle cx="113" cy="65" r="5" fill="#D9D9D9"/>
<circle cx="113" cy="77" r="5" fill="#D9D9D9"/>
<circle cx="125" cy="77" r="5" fill="#D9D9D9"/>
<circle cx="161" cy="29" r="5" fill="#D9D9D9"/>
<circle cx="161" cy="41" r="5" fill="#D9D9D9"/>
<circle cx="161" cy="53" r="5" fill="#D9D9D9"/>
<circle cx="161" cy="65" r="5" fill="#D9D9D9"/>
<circle cx="161" cy="77" r="5" fill="#D9D9D9"/>
<circle cx="149" cy="77" r="5" fill="#D9D9D9"/>
<circle cx="149" cy="41" r="5" fill="#D9D9D9"/>
<circle cx="173" cy="29" r="5" fill="#D9D9D9"/>
<circle cx="173" cy="17" r="5" fill="#D9D9D9"/>
<circle cx="185" cy="17" r="5" fill="#D9D9D9"/>
<circle cx="197" cy="17" r="5" fill="#D9D9D9"/>
<circle cx="173" cy="41" r="5" fill="#D9D9D9"/>
<circle cx="185" cy="41" r="5" fill="#D9D9D9"/>
<circle cx="197" cy="41" r="5" fill="#D9D9D9"/>
<circle cx="173" cy="53" r="5" fill="#D9D9D9"/>
<circle cx="173" cy="65" r="5" fill="#D9D9D9"/>
<circle cx="173" cy="77" r="5" fill="#D9D9D9"/>
<circle cx="185" cy="77" r="5" fill="#D9D9D9"/>
<circle cx="293" cy="29" r="5" fill="#D9D9D9"/>
<circle cx="293" cy="17" r="5" fill="#D9D9D9"/>
<circle cx="293" cy="41" r="5" fill="#D9D9D9"/>
<circle cx="293" cy="53" r="5" fill="#D9D9D9"/>
<circle cx="293" cy="65" r="5" fill="#D9D9D9"/>
<circle cx="293" cy="77" r="5" fill="#D9D9D9"/>
<circle cx="305" cy="29" r="5" fill="#D9D9D9"/>
<circle cx="305" cy="17" r="5" fill="#D9D9D9"/>
<circle cx="305" cy="41" r="5" fill="#D9D9D9"/>
<circle cx="305" cy="53" r="5" fill="#D9D9D9"/>
<circle cx="305" cy="65" r="5" fill="#D9D9D9"/>
<circle cx="305" cy="77" r="5" fill="#D9D9D9"/>
<circle cx="317" cy="77" r="5" fill="#D9D9D9"/>
<circle cx="329" cy="77" r="5" fill="#D9D9D9"/>
<circle cx="341" cy="77" r="5" fill="#D9D9D9"/>
<circle cx="509" cy="41" r="5" fill="#D9D9D9"/>
<circle cx="509" cy="53" r="5" fill="#D9D9D9"/>
<circle cx="509" cy="65" r="5" fill="#D9D9D9"/>
<circle cx="521" cy="29" r="5" fill="#D9D9D9"/>
<circle cx="533" cy="29" r="5" fill="#D9D9D9"/>
<circle cx="545" cy="29" r="5" fill="#D9D9D9"/>
<circle cx="557" cy="41" r="5" fill="#D9D9D9"/>
<circle cx="557" cy="53" r="5" fill="#D9D9D9"/>
<circle cx="557" cy="77" r="5" fill="#D9D9D9"/>
<circle cx="521" cy="41" r="5" fill="#D9D9D9"/>
<circle cx="521" cy="53" r="5" fill="#D9D9D9"/>
<circle cx="533" cy="53" r="5" fill="#D9D9D9"/>
<circle cx="545" cy="53" r="5" fill="#D9D9D9"/>
<circle cx="521" cy="65" r="5" fill="#D9D9D9"/>
<circle cx="521" cy="77" r="5" fill="#D9D9D9"/>
<circle cx="533" cy="77" r="5" fill="#D9D9D9"/>
<circle cx="545" cy="77" r="5" fill="#D9D9D9"/>
<circle cx="389" cy="29" r="5" fill="#D9D9D9"/>
<circle cx="389" cy="5" r="5" fill="#D9D9D9"/>
<circle cx="389" cy="41" r="5" fill="#D9D9D9"/>
<circle cx="389" cy="53" r="5" fill="#D9D9D9"/>
<circle cx="389" cy="65" r="5" fill="#D9D9D9"/>
<circle cx="389" cy="77" r="5" fill="#D9D9D9"/>
<circle cx="377" cy="77" r="5" fill="#D9D9D9"/>
<circle cx="377" cy="29" r="5" fill="#D9D9D9"/>
<circle cx="365" cy="77" r="5" fill="#D9D9D9"/>
<circle cx="365" cy="29" r="5" fill="#D9D9D9"/>
<circle cx="401" cy="29" r="5" fill="#D9D9D9"/>
<circle cx="401" cy="41" r="5" fill="#D9D9D9"/>
<circle cx="401" cy="53" r="5" fill="#D9D9D9"/>
<circle cx="401" cy="65" r="5" fill="#D9D9D9"/>
<circle cx="401" cy="77" r="5" fill="#D9D9D9"/>
<circle cx="413" cy="77" r="5" fill="#D9D9D9"/>
<circle cx="437" cy="29" r="5" fill="#D9D9D9"/>
<circle cx="437" cy="41" r="5" fill="#D9D9D9"/>
<circle cx="437" cy="53" r="5" fill="#D9D9D9"/>
<circle cx="437" cy="65" r="5" fill="#D9D9D9"/>
<circle cx="437" cy="77" r="5" fill="#D9D9D9"/>
<circle cx="449" cy="41" r="5" fill="#D9D9D9"/>
<circle cx="485" cy="41" r="5" fill="#D9D9D9"/>
<circle cx="473" cy="41" r="5" fill="#D9D9D9"/>
<circle cx="461" cy="29" r="5" fill="#D9D9D9"/>
<circle cx="473" cy="29" r="5" fill="#D9D9D9"/>
<circle cx="449" cy="53" r="5" fill="#D9D9D9"/>
<circle cx="485" cy="53" r="5" fill="#D9D9D9"/>
<circle cx="449" cy="65" r="5" fill="#D9D9D9"/>
<circle cx="485" cy="65" r="5" fill="#D9D9D9"/>
<circle cx="449" cy="77" r="5" fill="#D9D9D9"/>
<circle cx="485" cy="77" r="5" fill="#D9D9D9"/>
<circle cx="221" cy="41" r="5" fill="#D9D9D9"/>
<circle cx="221" cy="53" r="5" fill="#D9D9D9"/>
<circle cx="221" cy="65" r="5" fill="#D9D9D9"/>
<circle cx="233" cy="29" r="5" fill="#D9D9D9"/>
<circle cx="245" cy="29" r="5" fill="#D9D9D9"/>
<circle cx="257" cy="29" r="5" fill="#D9D9D9"/>
<circle cx="233" cy="41" r="5" fill="#D9D9D9"/>
<circle cx="269" cy="41" r="5" fill="#D9D9D9"/>
<circle cx="233" cy="53" r="5" fill="#D9D9D9"/>
<circle cx="245" cy="53" r="5" fill="#D9D9D9"/>
<circle cx="257" cy="53" r="5" fill="#D9D9D9"/>
<circle cx="269" cy="53" r="5" fill="#D9D9D9"/>
<circle cx="233" cy="65" r="5" fill="#D9D9D9"/>
<circle cx="233" cy="77" r="5" fill="#D9D9D9"/>
<circle cx="245" cy="77" r="5" fill="#D9D9D9"/>
<circle cx="257" cy="77" r="5" fill="#D9D9D9"/>
<circle cx="269" cy="77" r="5" fill="#D9D9D9"/>
<circle cx="5" cy="17" r="5" fill="#D9D9D9"/>
<circle cx="5" cy="29" r="5" fill="#D9D9D9"/>
<circle cx="5" cy="41" r="5" fill="#D9D9D9"/>
<circle cx="5" cy="53" r="5" fill="#D9D9D9"/>
<circle cx="5" cy="65" r="5" fill="#D9D9D9"/>
<circle cx="5" cy="77" r="5" fill="#D9D9D9"/>
<circle cx="29" cy="77" r="5" fill="#D9D9D9"/>
<circle cx="17" cy="17" r="5" fill="#D9D9D9"/>
<circle cx="17" cy="29" r="5" fill="#D9D9D9"/>
<circle cx="17" cy="41" r="5" fill="#D9D9D9"/>
<circle cx="17" cy="53" r="5" fill="#D9D9D9"/>
<circle cx="17" cy="65" r="5" fill="#D9D9D9"/>
<circle cx="17" cy="77" r="5" fill="#D9D9D9"/>
<circle cx="41" cy="77" r="5" fill="#D9D9D9"/>
<circle cx="53" cy="77" r="5" fill="#D9D9D9"/>
<circle cx="581" cy="41" r="5" fill="#D9D9D9"/>
<circle cx="581" cy="53" r="5" fill="#D9D9D9"/>
<circle cx="581" cy="77" r="5" fill="#D9D9D9"/>
<circle cx="593" cy="29" r="5" fill="#D9D9D9"/>
<circle cx="605" cy="29" r="5" fill="#D9D9D9"/>
<circle cx="617" cy="29" r="5" fill="#D9D9D9"/>
<circle cx="629" cy="29" r="5" fill="#D9D9D9"/>
<circle cx="593" cy="41" r="5" fill="#D9D9D9"/>
<circle cx="593" cy="53" r="5" fill="#D9D9D9"/>
<circle cx="605" cy="53" r="5" fill="#D9D9D9"/>
<circle cx="617" cy="53" r="5" fill="#D9D9D9"/>
<circle cx="617" cy="65" r="5" fill="#D9D9D9"/>
<circle cx="617" cy="77" r="5" fill="#D9D9D9"/>
<circle cx="629" cy="53" r="5" fill="#D9D9D9"/>
<circle cx="629" cy="65" r="5" fill="#D9D9D9"/>
<circle cx="593" cy="77" r="5" fill="#D9D9D9"/>
<circle cx="605" cy="77" r="5" fill="#D9D9D9"/>
</svg>
